<svg width="25" height="25" viewBox="0 0 25 25" fill="none" xmlns="http://www.w3.org/2000/svg">
<path fill-rule="evenodd" clip-rule="evenodd" d="M13.8333 7.5H11.8333V11.5H7.83331V13.5H11.8333V17.5H13.8333V13.5H17.8333V11.5H13.8333V7.5ZM12.8333 2.5C7.31331 2.5 2.83331 6.98 2.83331 12.5C2.83331 18.02 7.31331 22.5 12.8333 22.5C18.3533 22.5 22.8333 18.02 22.8333 12.5C22.8333 6.98 18.3533 2.5 12.8333 2.5ZM12.8333 20.5C8.42331 20.5 4.83331 16.91 4.83331 12.5C4.83331 8.09 8.42331 4.5 12.8333 4.5C17.2433 4.5 20.8333 8.09 20.8333 12.5C20.8333 16.91 17.2433 20.5 12.8333 20.5Z" fill="#5C00DC"/>
</svg>
