<svg fill="none" height="35" viewBox="0 0 35 35" width="35" xmlns="http://www.w3.org/2000/svg" xmlns:xlink="http://www.w3.org/1999/xlink"><clipPath id="a"><path d="m0 0h35v35h-35z"/></clipPath><g clip-path="url(#a)"><path d="m16.46 13.14c1.4085-.7069 2.5373-1.8685 3.2036-3.29669s.8312-3.03944.4679-4.57298c-.3632-1.53354-1.2333-2.89963-2.4695-3.87719-1.2361-.977554-2.766-1.509366-4.342-1.509366s-3.1058.531812-4.34198 1.509366c-1.23616.97756-2.10627 2.34365-2.46952 3.87719s-.19838 3.14479.46793 4.57298 1.79506 2.58979 3.20357 3.29669c-2.99146.8579-5.61379 2.684-7.45602 5.1922-1.842238 2.5082-2.8002689 5.5567-2.72396175 8.6678h26.63998175c.0763-3.1111-.8817-6.1596-2.7239-8.6678-1.8423-2.5082-4.4646-4.3343-7.4561-5.1922z" fill="#e71356"/><path d="m24.13 35c6.0033 0 10.87-4.8667 10.87-10.87s-4.8667-10.87-10.87-10.87-10.87 4.8667-10.87 10.87 4.8667 10.87 10.87 10.87z" fill="#ab99ff"/><path d="m19.45 14.34c-2.3037 1.0883-4.1489 2.9554-5.2101 5.2717s-1.2701 4.933-.5899 7.3883h13c.0398-2.5609-.607-5.0857-1.8732-7.3121-1.2661-2.2264-3.1055-4.073-5.3268-5.3479z" fill="#5c00dc"/></g></svg>